REM DIRINDEX 1\6,1\2\7,1\2\8,1\2\9,1\3\10,1\3\11,1\4\12,1\4\13,1\4\14,1\5\15,1\5\16,1\5\17
REM DIRNAME cjc041,folder01,folder02,folder03,folder04,folder05,folder06,folder07,folder08,folder09,folder10,folder11,folder12,folder13,folder14,folder15,folder16
TITLE ""
FILE "3Q_t2_0488-0503.mp3" MP3
  TRACK 01 AUDIO
    TITLE "7:cjc041_4879"
    INDEX 01 00:00:00
  TRACK 02 AUDIO
    TITLE "0:"
    INDEX 01 00:00:72
  TRACK 03 AUDIO
    TITLE "8:cjc041_4880"
    INDEX 01 00:01:54
  TRACK 04 AUDIO
    TITLE "0:"
    INDEX 01 00:02:55
  TRACK 05 AUDIO
    TITLE "9:cjc041_4881"
    INDEX 01 00:03:37
  TRACK 06 AUDIO
    TITLE "0:"
    INDEX 01 00:04:44
  TRACK 07 AUDIO
    TITLE "7:cjc041_4882"
    INDEX 01 00:06:24
  TRACK 08 AUDIO
    TITLE "0:"
    INDEX 01 00:07:43
  TRACK 09 AUDIO
    TITLE "8:cjc041_4883"
    INDEX 01 00:08:17
  TRACK 10 AUDIO
    TITLE "0:"
    INDEX 01 00:09:42
  TRACK 11 AUDIO
    TITLE "9:cjc041_4884"
    INDEX 01 00:10:21
  TRACK 12 AUDIO
    TITLE "0:"
    INDEX 01 00:11:42
  TRACK 13 AUDIO
    TITLE "7:cjc041_4885"
    INDEX 01 00:13:20
  TRACK 14 AUDIO
    TITLE "0:"
    INDEX 01 00:14:31
  TRACK 15 AUDIO
    TITLE "8:cjc041_4886"
    INDEX 01 00:15:07
  TRACK 16 AUDIO
    TITLE "0:"
    INDEX 01 00:16:22
  TRACK 17 AUDIO
    TITLE "9:cjc041_4887"
    INDEX 01 00:17:00
  TRACK 18 AUDIO
    TITLE "0:"
    INDEX 01 00:18:13
  TRACK 19 AUDIO
    TITLE "7:cjc041_4888"
    INDEX 01 00:19:67
  TRACK 20 AUDIO
    TITLE "0:"
    INDEX 01 00:21:04
  TRACK 21 AUDIO
    TITLE "8:cjc041_4889"
    INDEX 01 00:21:55
  TRACK 22 AUDIO
    TITLE "0:"
    INDEX 01 00:24:06
  TRACK 23 AUDIO
    TITLE "9:cjc041_4890"
    INDEX 01 00:24:65
  TRACK 24 AUDIO
    TITLE "0:"
    INDEX 01 00:26:03
  TRACK 25 AUDIO
    TITLE "7:cjc041_4891"
    INDEX 01 00:27:61
  TRACK 26 AUDIO
    TITLE "0:"
    INDEX 01 00:29:03
  TRACK 27 AUDIO
    TITLE "8:cjc041_4892"
    INDEX 01 00:29:58
  TRACK 28 AUDIO
    TITLE "0:"
    INDEX 01 00:31:00
  TRACK 29 AUDIO
    TITLE "9:cjc041_4893"
    INDEX 01 00:31:53
  TRACK 30 AUDIO
    TITLE "0:"
    INDEX 01 00:32:72
  TRACK 31 AUDIO
    TITLE "7:cjc041_4894"
    INDEX 01 00:34:61
  TRACK 32 AUDIO
    TITLE "0:"
    INDEX 01 00:35:70
  TRACK 33 AUDIO
    TITLE "8:cjc041_4895"
    INDEX 01 00:36:46
  TRACK 34 AUDIO
    TITLE "0:"
    INDEX 01 00:37:52
  TRACK 35 AUDIO
    TITLE "9:cjc041_4896"
    INDEX 01 00:38:31
  TRACK 36 AUDIO
    TITLE "0:"
    INDEX 01 00:39:43
  TRACK 37 AUDIO
    TITLE "7:cjc041_4897"
    INDEX 01 00:41:22
  TRACK 38 AUDIO
    TITLE "0:"
    INDEX 01 00:42:39
  TRACK 39 AUDIO
    TITLE "8:cjc041_4898"
    INDEX 01 00:43:17
  TRACK 40 AUDIO
    TITLE "0:"
    INDEX 01 00:45:28
  TRACK 41 AUDIO
    TITLE "9:cjc041_4899"
    INDEX 01 00:46:06
  TRACK 42 AUDIO
    TITLE "0:"
    INDEX 01 00:47:28
  TRACK 43 AUDIO
    TITLE "7:cjc041_4900"
    INDEX 01 00:49:08
  TRACK 44 AUDIO
    TITLE "0:"
    INDEX 01 00:50:25
  TRACK 45 AUDIO
    TITLE "8:cjc041_4901"
    INDEX 01 00:50:74
  TRACK 46 AUDIO
    TITLE "0:"
    INDEX 01 00:52:10
  TRACK 47 AUDIO
    TITLE "9:cjc041_4902"
    INDEX 01 00:52:63
  TRACK 48 AUDIO
    TITLE "0:"
    INDEX 01 00:54:03
  TRACK 49 AUDIO
    TITLE "7:cjc041_4903"
    INDEX 01 00:55:59
  TRACK 50 AUDIO
    TITLE "0:"
    INDEX 01 00:57:01
  TRACK 51 AUDIO
    TITLE "8:cjc041_4904"
    INDEX 01 00:57:46
  TRACK 52 AUDIO
    TITLE "0:"
    INDEX 01 00:58:54
  TRACK 53 AUDIO
    TITLE "9:cjc041_4905"
    INDEX 01 00:59:30
  TRACK 54 AUDIO
    TITLE "0:"
    INDEX 01 01:00:45
  TRACK 55 AUDIO
    TITLE "7:cjc041_4906"
    INDEX 01 01:02:24
  TRACK 56 AUDIO
    TITLE "0:"
    INDEX 01 01:03:35
  TRACK 57 AUDIO
    TITLE "8:cjc041_4907"
    INDEX 01 01:04:11
  TRACK 58 AUDIO
    TITLE "0:"
    INDEX 01 01:05:26
  TRACK 59 AUDIO
    TITLE "9:cjc041_4908"
    INDEX 01 01:06:02
  TRACK 60 AUDIO
    TITLE "0:"
    INDEX 01 01:07:17
  TRACK 61 AUDIO
    TITLE "7:cjc041_4909"
    INDEX 01 01:08:70
  TRACK 62 AUDIO
    TITLE "0:"
    INDEX 01 01:09:73
  TRACK 63 AUDIO
    TITLE "8:cjc041_4910"
    INDEX 01 01:10:53
  TRACK 64 AUDIO
    TITLE "0:"
    INDEX 01 01:12:58
  TRACK 65 AUDIO
    TITLE "9:cjc041_4911"
    INDEX 01 01:13:34
  TRACK 66 AUDIO
    TITLE "0:"
    INDEX 01 01:14:39
  TRACK 67 AUDIO
    TITLE "7:cjc041_4912"
    INDEX 01 01:16:20
  TRACK 68 AUDIO
    TITLE "0:"
    INDEX 01 01:17:51
  TRACK 69 AUDIO
    TITLE "8:cjc041_4913"
    INDEX 01 01:18:31
  TRACK 70 AUDIO
    TITLE "0:"
    INDEX 01 01:20:22
  TRACK 71 AUDIO
    TITLE "9:cjc041_4914"
    INDEX 01 01:20:71
  TRACK 72 AUDIO
    TITLE "0:"
    INDEX 01 01:22:27
  TRACK 73 AUDIO
    TITLE "7:cjc041_4915"
    INDEX 01 01:24:10
  TRACK 74 AUDIO
    TITLE "0:"
    INDEX 01 01:25:62
  TRACK 75 AUDIO
    TITLE "8:cjc041_4916"
    INDEX 01 01:26:42
  TRACK 76 AUDIO
    TITLE "0:"
    INDEX 01 01:29:70
  TRACK 77 AUDIO
    TITLE "9:cjc041_4917"
    INDEX 01 01:30:40
  TRACK 78 AUDIO
    TITLE "0:"
    INDEX 01 01:32:21
  TRACK 79 AUDIO
    TITLE "7:cjc041_4918"
    INDEX 01 01:34:05
  TRACK 80 AUDIO
    TITLE "0:"
    INDEX 01 01:35:18
  TRACK 81 AUDIO
    TITLE "8:cjc041_4919"
    INDEX 01 01:35:73
  TRACK 82 AUDIO
    TITLE "0:"
    INDEX 01 01:38:04
  TRACK 83 AUDIO
    TITLE "9:cjc041_4920"
    INDEX 01 01:38:53
  TRACK 84 AUDIO
    TITLE "0:"
    INDEX 01 01:39:72
  TRACK 85 AUDIO
    TITLE "7:cjc041_4921"
    INDEX 01 01:41:50
  TRACK 86 AUDIO
    TITLE "0:"
    INDEX 01 01:42:73
  TRACK 87 AUDIO
    TITLE "8:cjc041_4922"
    INDEX 01 01:43:49
  TRACK 88 AUDIO
    TITLE "0:"
    INDEX 01 01:44:36
  TRACK 89 AUDIO
    TITLE "9:cjc041_4923"
    INDEX 01 01:45:18
  TRACK 90 AUDIO
    TITLE "0:"
    INDEX 01 01:46:39
  TRACK 91 AUDIO
    TITLE "7:cjc041_4924"
    INDEX 01 01:48:16
  TRACK 92 AUDIO
    TITLE "0:"
    INDEX 01 01:49:32
  TRACK 93 AUDIO
    TITLE "8:cjc041_4925"
    INDEX 01 01:50:04
  TRACK 94 AUDIO
    TITLE "0:"
    INDEX 01 01:52:08
  TRACK 95 AUDIO
    TITLE "9:cjc041_4926"
    INDEX 01 01:52:61
  TRACK 96 AUDIO
    TITLE "0:"
    INDEX 01 01:54:05
